<svg width="15" height="18" viewBox="0 0 15 18" fill="none" xmlns="http://www.w3.org/2000/svg">
<path d="M7.14645 1.13232C7.34171 0.948732 7.65829 0.948732 7.85355 1.13232L10.3536 3.48284C10.5488 3.66643 10.5488 3.96408 10.3536 4.14767C10.1583 4.33126 9.84171 4.33126 9.64645 4.14767L8 2.59967L8 10.3967C8 10.6564 7.77614 10.8668 7.5 10.8668C7.22386 10.8668 7 10.6564 7 10.3967L7 2.59967L5.35355 4.14767C5.15829 4.33126 4.84171 4.33126 4.64645 4.14767C4.45118 3.96408 4.45118 3.66643 4.64645 3.48284L7.14645 1.13232Z" fill="#181818"/>
<path d="M2 7.57609C2 6.7972 2.67157 6.16578 3.5 6.16578H4.32353C4.59967 6.16578 4.82353 5.95531 4.82353 5.69567C4.82353 5.43604 4.59967 5.22557 4.32353 5.22557H3.5C2.11929 5.22557 1 6.27794 1 7.57609V14.6277C1 15.9258 2.11929 16.9782 3.5 16.9782H11.5C12.8807 16.9782 14 15.9258 14 14.6277V7.57609C14 6.27794 12.8807 5.22557 11.5 5.22557H10.6765C10.4003 5.22557 10.1765 5.43604 10.1765 5.69567C10.1765 5.95531 10.4003 6.16578 10.6765 6.16578H11.5C12.3284 6.16578 13 6.7972 13 7.57609V14.6277C13 15.4066 12.3284 16.038 11.5 16.038H3.5C2.67157 16.038 2 15.4066 2 14.6277V7.57609Z" fill="#181818"/>
<path d="M7.14645 1.13232C7.34171 0.948732 7.65829 0.948732 7.85355 1.13232L10.3536 3.48284C10.5488 3.66643 10.5488 3.96408 10.3536 4.14767C10.1583 4.33126 9.84171 4.33126 9.64645 4.14767L8 2.59967L8 10.3967C8 10.6564 7.77614 10.8668 7.5 10.8668C7.22386 10.8668 7 10.6564 7 10.3967L7 2.59967L5.35355 4.14767C5.15829 4.33126 4.84171 4.33126 4.64645 4.14767C4.45118 3.96408 4.45118 3.66643 4.64645 3.48284L7.14645 1.13232Z" stroke="#181818" stroke-width="0.5" stroke-linecap="round" stroke-linejoin="round"/>
<path d="M2 7.57609C2 6.7972 2.67157 6.16578 3.5 6.16578H4.32353C4.59967 6.16578 4.82353 5.95531 4.82353 5.69567C4.82353 5.43604 4.59967 5.22557 4.32353 5.22557H3.5C2.11929 5.22557 1 6.27794 1 7.57609V14.6277C1 15.9258 2.11929 16.9782 3.5 16.9782H11.5C12.8807 16.9782 14 15.9258 14 14.6277V7.57609C14 6.27794 12.8807 5.22557 11.5 5.22557H10.6765C10.4003 5.22557 10.1765 5.43604 10.1765 5.69567C10.1765 5.95531 10.4003 6.16578 10.6765 6.16578H11.5C12.3284 6.16578 13 6.7972 13 7.57609V14.6277C13 15.4066 12.3284 16.038 11.5 16.038H3.5C2.67157 16.038 2 15.4066 2 14.6277V7.57609Z" stroke="#181818" stroke-width="0.5" stroke-linecap="round" stroke-linejoin="round"/>
</svg>
