<svg width="19" height="15" viewBox="0 0 19 15" fill="none" xmlns="http://www.w3.org/2000/svg">
<path d="M1.30316 6.45639C6.40585 4.33988 9.80764 2.94332 11.5085 2.27004C16.3697 0.343511 17.3777 0.0102019 18.0356 0.000202654C18.1791 -0.00313043 18.5046 0.0335331 18.7146 0.193521C18.8931 0.330178 18.9421 0.513498 18.9631 0.643488C18.9841 0.773479 19.0156 1.07012 18.9911 1.30011C18.7286 3.93658 17.5877 10.3294 17.0102 13.2826C16.7652 14.5325 16.2822 14.9491 15.8133 14.9924C14.7983 15.0824 14.0249 14.3525 13.0414 13.7392C11.5015 12.7793 10.6301 12.1793 9.13568 11.2394C7.40679 10.1561 8.52672 9.5595 9.51366 8.58623C9.77264 8.33292 14.2489 4.45321 14.3364 4.0999C14.3469 4.05657 14.3574 3.89325 14.2559 3.80659C14.1544 3.71993 14.0039 3.74993 13.8919 3.77326C13.7379 3.80659 11.2775 5.35647 6.51084 8.41958C5.81088 8.87621 5.18092 9.09953 4.61396 9.0862C3.98749 9.07287 2.78707 8.74956 1.89462 8.47291C0.799189 8.13294 -0.0722578 7.95295 0.00473752 7.37966C0.0432352 7.07635 0.477209 6.7697 1.30316 6.45639Z" fill="#FF1292"/>
</svg>
